<svg xmlns="http://www.w3.org/2000/svg" xmlns:xlink="http://www.w3.org/1999/xlink" version="1.1" width="900px" height="768px" viewBox="0 0 9000 7680" class="logo_svg" alt="logo Lemiesiewicz Piotr Fotografia" style="fill-rule:evenodd" xml:space="preserve">
<title>Lemiesiewicz Piotr Fotografia</title>
<desc>Logo fotografa Piotra Lemiesiewicza</desc>
<path class="fil0" d="M3349 7499h-511V6143H33V721h541v4903h2264V4045c0-1163 933-2105 2083-2105 764 0 1432 416 1794 1037h1626V1262H2836V721h6045v5431h-540V3508H6934c45 171 69 351 69 537 0 1162-932 2105-2082 2105-524 0-1048-7-1572-7v1356zM2375 186v541H1038V186h1337zm2537 2324c840 0 1520 680 1520 1520 0 839-680 1520-1520 1520-839 0-1520-681-1520-1520 0-840 681-1520 1520-1520z"/>
<g id="logo_text">
<path class="fil0" d="M3634 6495h33v301h129v32h-162v-333zm271 0h191v32h-157v105h156v32h-156v132h156v32h-190v-333zm291 333l46-333h7l136 273 135-273h5l48 333h-32l-34-238-118 238h-9l-119-240-32 240h-33zm493-333h34v333h-34v-333zm167 0h191v32h-157v105h156v32h-156v132h156v32h-190v-333zm271 271l28-17c61 111 165 30 120-34-36-51-127-82-127-150 0-69 95-125 169-24l-27 21c-57-75-108-32-108 1 0 66 141 92 141 184 0 87-129 141-196 19zm318-271h33v333h-33v-333zm166 0h191v32h-157v105h156v32h-156v132h156v32h-190v-333zm287 0h34l68 240 97-240h6l94 240 69-240h34l-96 333h-5l-99-252-102 252h-5l-95-333zm516 0h34v333h-34v-333zm477 61l-26 21c-82-107-264-58-264 85 0 140 174 194 264 88l26 20c-93 118-326 79-326-110 0-180 235-230 326-104zm111-29v-32h176l-140 301h133v32h-184l140-301h-125zm489-32c38 0 118-2 144 5 87 21 88 146-2 168-23 5-68 5-108 5v155h-34v-333zm34 32v114c54 0 140 13 140-57 0-22-12-43-33-51-20-8-79-6-107-6zm293-32h34v333h-34v-333zm325-8c167 0 233 193 127 299-108 108-300 35-300-123 0-98 76-176 173-176zm2 32c-126 0-188 156-100 244 87 86 242 30 242-102 0-82-65-142-142-142zm449-24v32h-74v301h-34v-301h-74v-32h182zm107 0c85 0 209-18 209 89 0 67-53 89-115 89l120 155h-41l-120-155h-20v155h-33v-333zm33 32v114c55 0 142 13 142-58 0-68-86-56-142-56z"/>
<path class="fil0" d="M3633 7022h215v80h-133v79h133v80h-133v195h-82v-434zm675-11c202 0 301 249 160 390-140 141-386 45-386-162 0-128 101-228 226-228zm-1 81c-143 0-188 183-90 263 94 76 233 12 233-115 0-82-62-148-143-148zm444-70h240v82h-79v352h-85v-352h-76v-82zm682-11c201 0 300 249 160 390s-386 45-386-162c0-128 101-228 226-228zm-1 81c-143 0-188 183-90 263 94 76 233 12 233-115 0-82-62-148-143-148zm888 1l-59 57c-108-114-279-47-279 88 0 151 212 211 275 76h-126v-78h219c9 261-315 304-421 118-85-149 12-343 203-343 76 0 134 24 188 82zm293-71c100 0 196-14 239 55 35 56 29 153-63 186l102 193h-90l-98-184h-8v184h-82v-434zm82 170c47 0 96 5 96-45 0-51-58-45-96-45v90zm577-170h84l167 434h-86l-34-89h-178l-35 89h-86l168-434zm42 115l-59 150h118l-59-150zm456-115h215v80h-133v79h133v80h-133v195h-82v-434zm464 0h82v434h-82v-434zm489 0h84l167 434h-86l-34-89h-178l-35 89h-86l168-434zm42 115l-59 150h118l-59-150z"/>
</g>
</svg>
